<?xml version="1.0" encoding="UTF-8"?>
<!-- Created with Inkscape (http://www.inkscape.org/) -->
<svg width="230" height="50" version="1.1" viewBox="0 0 60.854 13.229" xmlns="http://www.w3.org/2000/svg">
 <defs>
  <clipPath id="clipPath40">
   <path transform="translate(-268.04 -299.48)" d="m0 0h841.89v595.28h-841.89z"/>
  </clipPath>
  <clipPath id="clipPath42">
   <path transform="translate(-342.01 -299.48)" d="m0 0h841.89v595.28h-841.89z"/>
  </clipPath>
  <clipPath id="clipPath45">
   <path transform="translate(-594.05 -299.48)" d="m0 0h841.89v595.28h-841.89z"/>
  </clipPath>
  <clipPath id="clipPath47">
   <path transform="translate(-727.29 -299.48)" d="m0 0h841.89v595.28h-841.89z"/>
  </clipPath>
 </defs>
 <g transform="translate(-1.6354 -.4994)" fill="#fff">
  <path d="m2.7778 1.9837v3.5903l4.1701-0.99352z"/>
  <path d="m6.6693 1.6649h-3.4642l4.0629 2.5293z"/>
  <path d="m2.7778 6.0861v6.0009l4.3151-7.029z"/>
  <path d="m9.1743 1.6649h-1.9938l0.5539 2.3443z"/>
  <path d="m9.5022 5.5868v-1.1038l-1.2818 0.3058z"/>
  <path d="m3.07 12.563h6.1759l-1.7171-7.2644z"/>
  <path d="m9.5022 3.9709v-1.8875l-1.3572 2.2108z"/>
  <path d="m9.5022 11.486v-5.316l-1.4731-0.91707z"/>
  <path transform="matrix(.079469 0 0 -.079469 20.001 12.563)" d="m0 0-1.527 4.594-47.005 107.1-47.005-107.1-1.529-4.594h-16.222l4.374 10.226 53.738 122.54c1.118 2.577 3.721 4.239 6.644 4.239 2.921 0 5.524-1.661 6.642-4.237l53.758-122.58 4.355-10.18z" clip-path="url(#clipPath40)"/>
  <path transform="matrix(.079469 0 0 -.079469 25.879 12.563)" d="m0 0c-8.339 0-16.422 1.835-24.025 5.456-7.308 3.48-13.855 8.451-19.462 14.777-11.429 12.896-17.724 30.063-17.724 48.337s6.295 35.44 17.724 48.337c5.607 6.325 12.154 11.297 19.462 14.777 7.603 3.62 15.686 5.455 24.025 5.455 10.573 0 21.782-3.196 31.561-8.998 9.353-5.551 16.713-12.975 20.723-20.906l0.04-0.078 4.939-10.604h-15.675l-2.236 3.735-0.087 0.173c-5.495 10.857-21.685 22.087-39.265 22.087-25.722 0-46.647-24.214-46.647-53.978s20.925-53.979 46.647-53.979c17.922 0 33.842 11.369 39.722 22.066l0.049 0.088 2.188 3.655h16.385l-5.783-10.861-0.043-0.075c-8.408-14.642-29.148-29.464-52.518-29.464" clip-path="url(#clipPath42)"/>
  <path d="m38.393 12.563v-4.8694h-5.9118v4.8694h-1.1573v-10.898h1.1573v4.8693h5.9118v-4.8693h1.1574v10.898z"/>
  <path transform="matrix(.079469 0 0 -.079469 45.909 12.563)" d="m0 0c-8.297 0-16.355 1.836-23.949 5.457-7.301 3.48-13.85 8.45-19.464 14.771-11.477 12.92-17.798 30.088-17.798 48.341 0 18.254 6.321 35.422 17.798 48.342 5.614 6.32 12.163 11.29 19.464 14.771 7.587 3.618 15.636 5.454 23.924 5.457 0.156 2e-3 0.313 2e-3 0.469 2e-3 10.805 0 21.719-3.103 31.561-8.973 9.219-5.5 16.549-12.925 20.637-20.908l0.047-0.09 4.945-10.617h-15.675l-2.229 3.722-0.082 0.16c-5.498 10.721-21.106 22.115-39.198 22.115-0.133 0-0.266 0-0.399-2e-3h-0.052c-25.721 0-46.647-24.215-46.647-53.979s20.926-53.978 46.647-53.978c23.457 0 43.51 20.872 46.014 46.683h-53.11v14.591h60.655c4.083 0 7.281-3.205 7.281-7.296 0-18.248-6.275-35.412-17.669-48.327-5.579-6.324-12.089-11.296-19.346-14.78-7.552-3.624-15.569-5.462-23.824-5.462" clip-path="url(#clipPath45)"/>
  <path transform="matrix(.079469 0 0 -.079469 56.497 12.563)" d="m0 0c-33.649 0-61.025 30.76-61.025 68.57 0 37.809 27.376 68.569 61.025 68.569 8.297 0 16.347-1.837 23.925-5.459 7.283-3.481 13.811-8.454 19.404-14.778 11.411-12.907 17.696-30.071 17.696-48.333 0-18.261-6.285-35.426-17.696-48.332-5.593-6.325-12.121-11.297-19.404-14.778-7.578-3.622-15.628-5.459-23.925-5.459m0 122.55c-25.619 0-46.462-24.215-46.462-53.979s20.843-53.978 46.462-53.978 46.461 24.214 46.461 53.978-20.842 53.979-46.461 53.979" clip-path="url(#clipPath47)"/>
 </g>
</svg>
